<?xml version="1.0" encoding="utf-8"?>
<!-- Generator: Adobe Illustrator 16.0.0, SVG Export Plug-In . SVG Version: 6.00 Build 0)  -->
<!DOCTYPE svg PUBLIC "-//W3C//DTD SVG 1.1//EN" "http://www.w3.org/Graphics/SVG/1.1/DTD/svg11.dtd">
<svg version="1.1" id="Layer_1" xmlns="http://www.w3.org/2000/svg" xmlns:xlink="http://www.w3.org/1999/xlink" x="0px" y="0px"
	 width="140.683px" height="38.004px" viewBox="0 0 140.683 38.004" enable-background="new 0 0 140.683 38.004"
	 xml:space="preserve">
<g>
	<path fill="#231F20" d="M58.928,6.67h-9.719v25.488h2.988v-9.18h6.768c5.688,0,8.567-4.032,8.567-8.136
		C67.531,10.774,64.651,6.67,58.928,6.67z M58.928,19.954h-6.731V9.694h6.731c3.744-0.072,5.616,2.556,5.616,5.148
		C64.543,17.398,62.708,19.954,58.928,19.954z"/>
	<path fill="#231F20" d="M75.667,16.354c-1.476,0.396-2.879,1.476-2.879,3.204v12.601h-2.88V19.558c0-3.348,2.375-5.471,5.327-6.047
		c1.009-0.252,2.196-0.252,3.276-0.037v2.952C77.18,16.21,76.856,16.066,75.667,16.354L75.667,16.354z"/>
	<path fill="#231F20" d="M94.748,24.346v-5.003c0-4.176-3.6-6.192-7.128-6.192c-3.6,0-7.235,2.016-7.235,6.192v7.056
		c0,4.14,3.636,6.191,7.235,6.191c2.7,0,5.544-1.367,6.84-4.104l-2.592-1.296c-0.756,1.728-2.556,2.556-4.248,2.556
		c-2.195,0-4.355-1.08-4.319-3.348v-2.053H94.748z M83.3,19.343c-0.036-2.268,2.124-3.348,4.319-3.348
		c2.125,0,4.393,1.08,4.393,3.276v2.664H83.3V19.343z"/>
	<path fill="#231F20" d="M105.007,13.258c-2.34,0-4.896,1.008-6.623,2.916l1.979,1.908c1.044-1.332,2.772-2.016,4.429-2.016
		c2.231,0,4.392,1.044,4.392,3.204v1.944c-1.188-0.685-2.628-1.08-4.068-1.08c-3.779,0-7.38,1.548-7.415,6.012
		c0,3.996,2.915,6.408,6.659,6.443c2.484,0.036,5.111-0.359,7.704-1.26v-12.06C112.064,15.238,108.572,13.258,105.007,13.258z
		 M109.184,29.674c-1.548,0.324-3.168,0.396-4.752,0.36c-2.196-0.036-3.888-1.512-3.888-3.888c0.036-2.664,2.123-3.24,4.463-3.24
		c1.513,0,3.024,0.359,4.177,0.756V29.674z"/>
	<path fill="#231F20" d="M127.471,17.938c-0.684-1.296-2.448-1.872-4.104-1.872c-2.16,0-4.32,1.08-4.32,3.348v6.876
		c0,2.196,2.16,3.276,4.32,3.276c1.872,0,3.78-0.937,4.355-2.952l2.628,1.26c-1.08,3.096-4.104,4.572-6.983,4.572
		c-3.563,0-7.2-2.052-7.2-6.229v-6.804c0-4.176,3.637-6.228,7.2-6.228c2.628,0,5.292,1.224,6.695,3.708l-2.34,1.404L127.471,17.938
		L127.471,17.938z"/>
	<path fill="#231F20" d="M140.683,29.674v2.484c-4.355,0.576-7.632-1.872-7.632-6.048V6.634h2.844v6.876h3.816v2.88h-3.816v9.72
		C135.895,28.234,137.696,30.25,140.683,29.674L140.683,29.674z"/>
</g>
<g>
	<polygon fill-rule="evenodd" clip-rule="evenodd" fill="#231F20" points="38.014,26.037 26,26.001 26,38.001 38.014,38.004 
		38.014,26.037 	"/>
	<polygon fill-rule="evenodd" clip-rule="evenodd" fill="#231F20" points="38,13 26,13 26,25.001 38,25.001 38,13 	"/>
	<polygon fill-rule="evenodd" clip-rule="evenodd" fill="#231F20" points="25,13 13,13 13,25.001 25,25.001 25,13 	"/>
	<polygon fill-rule="evenodd" clip-rule="evenodd" fill="#231F20" points="38,0 26,0 26,12 38,12 38,0 	"/>
	<polygon fill-rule="evenodd" clip-rule="evenodd" fill="#231F20" points="12,26.001 0,26.001 0,38.001 12,38.001 12,26.001 	"/>
	<polygon fill-rule="evenodd" clip-rule="evenodd" fill="#231F20" points="25,26.001 13,26.001 13,38.001 25,38.001 25,26.001 	"/>
	<polygon fill-rule="evenodd" clip-rule="evenodd" fill="#231F20" points="25,13 13,13 13,25.001 25,25.001 25,13 	"/>
</g>
</svg>
